<?xml version="1.0" encoding="UTF-8" standalone="no"?>
<!DOCTYPE svg PUBLIC "-//W3C//DTD SVG 1.1//EN"
 "http://www.w3.org/Graphics/SVG/1.1/DTD/svg11.dtd">
<!-- Generated by graphviz version 2.47.0 (20210316.0004)
 -->
<!-- Title: dependencies Pages: 1 -->
<svg width="3514pt" height="284pt"
 viewBox="0.00 0.00 3514.00 284.00" xmlns="http://www.w3.org/2000/svg" xmlns:xlink="http://www.w3.org/1999/xlink">
<g id="graph0" class="graph" transform="scale(1 1) rotate(0) translate(4 280)">
<title>dependencies</title>
<polygon fill="white" stroke="transparent" points="-4,4 -4,-280 3510,-280 3510,4 -4,4"/>
<text text-anchor="start" x="1732.01" y="-42.4" font-family="Times-12" font-weight="bold" font-size="14.00">Legend</text>
<polygon fill="#ffffb3" stroke="transparent" points="1519,-10 1519,-30 1539,-30 1539,-10 1519,-10"/>
<text text-anchor="start" x="1542.63" y="-15.4" font-family="Times-12" font-size="14.00"> &#160;Declarations</text>
<polygon fill="#8dd3c7" stroke="transparent" points="1632,-10 1632,-30 1652,-30 1652,-10 1632,-10"/>
<text text-anchor="start" x="1655.73" y="-15.4" font-family="Times-12" font-size="14.00"> &#160;Module</text>
<polygon fill="#80b1d3" stroke="transparent" points="1718,-10 1718,-30 1738,-30 1738,-10 1718,-10"/>
<text text-anchor="start" x="1741.78" y="-15.4" font-family="Times-12" font-size="14.00"> &#160;Bootstrap</text>
<polygon fill="#fdb462" stroke="transparent" points="1815,-10 1815,-30 1835,-30 1835,-10 1815,-10"/>
<text text-anchor="start" x="1838.67" y="-15.4" font-family="Times-12" font-size="14.00"> &#160;Providers</text>
<polygon fill="#fb8072" stroke="transparent" points="1911,-10 1911,-30 1931,-30 1931,-10 1911,-10"/>
<text text-anchor="start" x="1934.73" y="-15.4" font-family="Times-12" font-size="14.00"> &#160;Exports</text>
<g id="clust1" class="cluster">
<title>cluster_SharedModule</title>
<polygon fill="none" stroke="black" stroke-dasharray="1,5" points="8,-70 8,-268 3498,-268 3498,-70 8,-70"/>
</g>
<g id="clust2" class="cluster">
<title>cluster_SharedModule_declarations</title>
<polygon fill="none" stroke="black" points="50,-78 50,-130 3454,-130 3454,-78 50,-78"/>
</g>
<g id="clust23" class="cluster">
<title>cluster_SharedModule_exports</title>
<polygon fill="none" stroke="black" points="16,-208 16,-260 3490,-260 3490,-208 16,-208"/>
</g>
<!-- ArtistGridCardComponent -->
<g id="node1" class="node">
<title>ArtistGridCardComponent</title>
<polygon fill="#ffffb3" stroke="black" points="3446.09,-122 3279.91,-122 3279.91,-86 3446.09,-86 3446.09,-122"/>
<text text-anchor="middle" x="3363" y="-99.8" font-family="Times,serif" font-size="14.00">ArtistGridCardComponent</text>
</g>
<!-- SharedModule -->
<g id="node20" class="node">
<title>SharedModule</title>
<polygon fill="#8dd3c7" stroke="black" points="1780.42,-187 1777.42,-191 1756.42,-191 1753.42,-187 1681.58,-187 1681.58,-151 1780.42,-151 1780.42,-187"/>
<text text-anchor="middle" x="1731" y="-164.8" font-family="Times,serif" font-size="14.00">SharedModule</text>
</g>
<!-- ArtistGridCardComponent&#45;&gt;SharedModule -->
<g id="edge1" class="edge">
<title>ArtistGridCardComponent&#45;&gt;SharedModule</title>
<path fill="none" stroke="black" d="M3286.88,-122.11C3286.88,-141.34 3286.88,-169 3286.88,-169 3286.88,-169 1790.57,-169 1790.57,-169"/>
<polygon fill="black" stroke="black" points="1790.57,-165.5 1780.57,-169 1790.57,-172.5 1790.57,-165.5"/>
</g>
<!-- AudioPlayerComponent -->
<g id="node2" class="node">
<title>AudioPlayerComponent</title>
<polygon fill="#ffffb3" stroke="black" points="3262.09,-122 3109.91,-122 3109.91,-86 3262.09,-86 3262.09,-122"/>
<text text-anchor="middle" x="3186" y="-99.8" font-family="Times,serif" font-size="14.00">AudioPlayerComponent</text>
</g>
<!-- AudioPlayerComponent&#45;&gt;SharedModule -->
<g id="edge2" class="edge">
<title>AudioPlayerComponent&#45;&gt;SharedModule</title>
<path fill="none" stroke="black" d="M3114.93,-122.22C3114.93,-140.83 3114.93,-167 3114.93,-167 3114.93,-167 1790.25,-167 1790.25,-167"/>
<polygon fill="black" stroke="black" points="1790.25,-163.5 1780.25,-167 1790.25,-170.5 1790.25,-163.5"/>
</g>
<!-- ChangePasswordModalComponent -->
<g id="node3" class="node">
<title>ChangePasswordModalComponent</title>
<polygon fill="#ffffb3" stroke="black" points="3092.3,-122 2877.7,-122 2877.7,-86 3092.3,-86 3092.3,-122"/>
<text text-anchor="middle" x="2985" y="-99.8" font-family="Times,serif" font-size="14.00">ChangePasswordModalComponent</text>
</g>
<!-- ChangePasswordModalComponent&#45;&gt;SharedModule -->
<g id="edge3" class="edge">
<title>ChangePasswordModalComponent&#45;&gt;SharedModule</title>
<path fill="none" stroke="black" d="M2892.86,-122.3C2892.86,-140.27 2892.86,-165 2892.86,-165 2892.86,-165 1790.55,-165 1790.55,-165"/>
<polygon fill="black" stroke="black" points="1790.55,-161.5 1780.55,-165 1790.55,-168.5 1790.55,-161.5"/>
</g>
<!-- ClickableArtistNamesComponent -->
<g id="node4" class="node">
<title>ClickableArtistNamesComponent</title>
<polygon fill="#ffffb3" stroke="black" points="2859.74,-122 2654.26,-122 2654.26,-86 2859.74,-86 2859.74,-122"/>
<text text-anchor="middle" x="2757" y="-99.8" font-family="Times,serif" font-size="14.00">ClickableArtistNamesComponent</text>
</g>
<!-- ClickableArtistNamesComponent&#45;&gt;SharedModule -->
<g id="edge4" class="edge">
<title>ClickableArtistNamesComponent&#45;&gt;SharedModule</title>
<path fill="none" stroke="black" d="M2665.27,-122.02C2665.27,-139.37 2665.27,-163 2665.27,-163 2665.27,-163 1790.24,-163 1790.24,-163"/>
<polygon fill="black" stroke="black" points="1790.24,-159.5 1780.24,-163 1790.24,-166.5 1790.24,-159.5"/>
</g>
<!-- DragDropDirective -->
<g id="node5" class="node">
<title>DragDropDirective</title>
<polygon fill="#ffffb3" stroke="black" points="2636.33,-122 2511.67,-122 2511.67,-86 2636.33,-86 2636.33,-122"/>
<text text-anchor="middle" x="2574" y="-99.8" font-family="Times,serif" font-size="14.00">DragDropDirective</text>
</g>
<!-- DragDropDirective&#45;&gt;SharedModule -->
<g id="edge5" class="edge">
<title>DragDropDirective&#45;&gt;SharedModule</title>
<path fill="none" stroke="black" d="M2519.71,-122.04C2519.71,-138.73 2519.71,-161 2519.71,-161 2519.71,-161 1790.34,-161 1790.34,-161"/>
<polygon fill="black" stroke="black" points="1790.34,-157.5 1780.34,-161 1790.34,-164.5 1790.34,-157.5"/>
</g>
<!-- DurationPipe -->
<g id="node6" class="node">
<title>DurationPipe</title>
<polygon fill="#ffffb3" stroke="black" points="2493.15,-122 2402.85,-122 2402.85,-86 2493.15,-86 2493.15,-122"/>
<text text-anchor="middle" x="2448" y="-99.8" font-family="Times,serif" font-size="14.00">DurationPipe</text>
</g>
<!-- DurationPipe&#45;&gt;SharedModule -->
<g id="edge6" class="edge">
<title>DurationPipe&#45;&gt;SharedModule</title>
<path fill="none" stroke="black" d="M2409.3,-122.01C2409.3,-138.05 2409.3,-159 2409.3,-159 2409.3,-159 1790.33,-159 1790.33,-159"/>
<polygon fill="black" stroke="black" points="1790.33,-155.5 1780.33,-159 1790.33,-162.5 1790.33,-155.5"/>
</g>
<!-- EditProfileModalComponent -->
<g id="node7" class="node">
<title>EditProfileModalComponent</title>
<polygon fill="#ffffb3" stroke="black" points="2384.82,-122 2205.18,-122 2205.18,-86 2384.82,-86 2384.82,-122"/>
<text text-anchor="middle" x="2295" y="-99.8" font-family="Times,serif" font-size="14.00">EditProfileModalComponent</text>
</g>
<!-- EditProfileModalComponent&#45;&gt;SharedModule -->
<g id="edge7" class="edge">
<title>EditProfileModalComponent&#45;&gt;SharedModule</title>
<path fill="none" stroke="black" d="M2210.47,-122.24C2210.47,-137.57 2210.47,-157 2210.47,-157 2210.47,-157 1790.51,-157 1790.51,-157"/>
<polygon fill="black" stroke="black" points="1790.51,-153.5 1780.51,-157 1790.51,-160.5 1790.51,-153.5"/>
</g>
<!-- FollowArtistButtonComponent -->
<g id="node8" class="node">
<title>FollowArtistButtonComponent</title>
<polygon fill="#ffffb3" stroke="black" points="2187.5,-122 1996.5,-122 1996.5,-86 2187.5,-86 2187.5,-122"/>
<text text-anchor="middle" x="2092" y="-99.8" font-family="Times,serif" font-size="14.00">FollowArtistButtonComponent</text>
</g>
<!-- FollowArtistButtonComponent&#45;&gt;SharedModule -->
<g id="edge8" class="edge">
<title>FollowArtistButtonComponent&#45;&gt;SharedModule</title>
<path fill="none" stroke="black" d="M2125.92,-122.12C2125.92,-136.78 2125.92,-155 2125.92,-155 2125.92,-155 1790.22,-155 1790.22,-155"/>
<polygon fill="black" stroke="black" points="1790.22,-151.5 1780.22,-155 1790.22,-158.5 1790.22,-151.5"/>
</g>
<!-- GlobalSearchComponent -->
<g id="node9" class="node">
<title>GlobalSearchComponent</title>
<polygon fill="#ffffb3" stroke="black" points="1978.52,-122 1821.48,-122 1821.48,-86 1978.52,-86 1978.52,-122"/>
<text text-anchor="middle" x="1900" y="-99.8" font-family="Times,serif" font-size="14.00">GlobalSearchComponent</text>
</g>
<!-- GlobalSearchComponent&#45;&gt;SharedModule -->
<g id="edge9" class="edge">
<title>GlobalSearchComponent&#45;&gt;SharedModule</title>
<path fill="none" stroke="black" d="M1927,-122.25C1927,-136.18 1927,-153 1927,-153 1927,-153 1790.46,-153 1790.46,-153"/>
<polygon fill="black" stroke="black" points="1790.46,-149.5 1780.46,-153 1790.46,-156.5 1790.46,-149.5"/>
</g>
<!-- LikeButtonComponent -->
<g id="node10" class="node">
<title>LikeButtonComponent</title>
<polygon fill="#ffffb3" stroke="black" points="1803.61,-122 1658.39,-122 1658.39,-86 1803.61,-86 1803.61,-122"/>
<text text-anchor="middle" x="1731" y="-99.8" font-family="Times,serif" font-size="14.00">LikeButtonComponent</text>
</g>
<!-- LikeButtonComponent&#45;&gt;SharedModule -->
<g id="edge10" class="edge">
<title>LikeButtonComponent&#45;&gt;SharedModule</title>
<path fill="none" stroke="black" d="M1731,-122.11C1731,-122.11 1731,-140.99 1731,-140.99"/>
<polygon fill="black" stroke="black" points="1727.5,-140.99 1731,-150.99 1734.5,-140.99 1727.5,-140.99"/>
</g>
<!-- PasswordVisibilityPipe -->
<g id="node11" class="node">
<title>PasswordVisibilityPipe</title>
<polygon fill="#ffffb3" stroke="black" points="1640.94,-122 1493.06,-122 1493.06,-86 1640.94,-86 1640.94,-122"/>
<text text-anchor="middle" x="1567" y="-99.8" font-family="Times,serif" font-size="14.00">PasswordVisibilityPipe</text>
</g>
<!-- PasswordVisibilityPipe&#45;&gt;SharedModule -->
<g id="edge11" class="edge">
<title>PasswordVisibilityPipe&#45;&gt;SharedModule</title>
<path fill="none" stroke="black" d="M1590.07,-122.25C1590.07,-136.18 1590.07,-153 1590.07,-153 1590.07,-153 1671.71,-153 1671.71,-153"/>
<polygon fill="black" stroke="black" points="1671.71,-156.5 1681.71,-153 1671.71,-149.5 1671.71,-156.5"/>
</g>
<!-- PictureSelectableComponent -->
<g id="node12" class="node">
<title>PictureSelectableComponent</title>
<polygon fill="#ffffb3" stroke="black" points="1475.01,-122 1296.99,-122 1296.99,-86 1475.01,-86 1475.01,-122"/>
<text text-anchor="middle" x="1386" y="-99.8" font-family="Times,serif" font-size="14.00">PictureSelectableComponent</text>
</g>
<!-- PictureSelectableComponent&#45;&gt;SharedModule -->
<g id="edge12" class="edge">
<title>PictureSelectableComponent&#45;&gt;SharedModule</title>
<path fill="none" stroke="black" d="M1412.25,-122.12C1412.25,-136.78 1412.25,-155 1412.25,-155 1412.25,-155 1671.55,-155 1671.55,-155"/>
<polygon fill="black" stroke="black" points="1671.55,-158.5 1681.55,-155 1671.55,-151.5 1671.55,-158.5"/>
</g>
<!-- PlayButtonComponent -->
<g id="node13" class="node">
<title>PlayButtonComponent</title>
<polygon fill="#ffffb3" stroke="black" points="1279.34,-122 1134.66,-122 1134.66,-86 1279.34,-86 1279.34,-122"/>
<text text-anchor="middle" x="1207" y="-99.8" font-family="Times,serif" font-size="14.00">PlayButtonComponent</text>
</g>
<!-- PlayButtonComponent&#45;&gt;SharedModule -->
<g id="edge13" class="edge">
<title>PlayButtonComponent&#45;&gt;SharedModule</title>
<path fill="none" stroke="black" d="M1274.54,-122.24C1274.54,-137.57 1274.54,-157 1274.54,-157 1274.54,-157 1671.72,-157 1671.72,-157"/>
<polygon fill="black" stroke="black" points="1671.72,-160.5 1681.72,-157 1671.72,-153.5 1671.72,-160.5"/>
</g>
<!-- PlaylistDurationPipe -->
<g id="node14" class="node">
<title>PlaylistDurationPipe</title>
<polygon fill="#ffffb3" stroke="black" points="1117.16,-122 984.84,-122 984.84,-86 1117.16,-86 1117.16,-122"/>
<text text-anchor="middle" x="1051" y="-99.8" font-family="Times,serif" font-size="14.00">PlaylistDurationPipe</text>
</g>
<!-- PlaylistDurationPipe&#45;&gt;SharedModule -->
<g id="edge14" class="edge">
<title>PlaylistDurationPipe&#45;&gt;SharedModule</title>
<path fill="none" stroke="black" d="M1110.7,-122.01C1110.7,-138.05 1110.7,-159 1110.7,-159 1110.7,-159 1671.55,-159 1671.55,-159"/>
<polygon fill="black" stroke="black" points="1671.55,-162.5 1681.55,-159 1671.55,-155.5 1671.55,-162.5"/>
</g>
<!-- PlaylistLikeButtonComponent -->
<g id="node15" class="node">
<title>PlaylistLikeButtonComponent</title>
<polygon fill="#ffffb3" stroke="black" points="966.61,-122 779.39,-122 779.39,-86 966.61,-86 966.61,-122"/>
<text text-anchor="middle" x="873" y="-99.8" font-family="Times,serif" font-size="14.00">PlaylistLikeButtonComponent</text>
</g>
<!-- PlaylistLikeButtonComponent&#45;&gt;SharedModule -->
<g id="edge15" class="edge">
<title>PlaylistLikeButtonComponent&#45;&gt;SharedModule</title>
<path fill="none" stroke="black" d="M958.43,-122.04C958.43,-138.73 958.43,-161 958.43,-161 958.43,-161 1671.5,-161 1671.5,-161"/>
<polygon fill="black" stroke="black" points="1671.5,-164.5 1681.5,-161 1671.5,-157.5 1671.5,-164.5"/>
</g>
<!-- PlaylistModalComponent -->
<g id="node16" class="node">
<title>PlaylistModalComponent</title>
<polygon fill="#ffffb3" stroke="black" points="761.89,-122 602.11,-122 602.11,-86 761.89,-86 761.89,-122"/>
<text text-anchor="middle" x="682" y="-99.8" font-family="Times,serif" font-size="14.00">PlaylistModalComponent</text>
</g>
<!-- PlaylistModalComponent&#45;&gt;SharedModule -->
<g id="edge16" class="edge">
<title>PlaylistModalComponent&#45;&gt;SharedModule</title>
<path fill="none" stroke="black" d="M750.69,-122.02C750.69,-139.37 750.69,-163 750.69,-163 750.69,-163 1671.71,-163 1671.71,-163"/>
<polygon fill="black" stroke="black" points="1671.71,-166.5 1681.71,-163 1671.71,-159.5 1671.71,-166.5"/>
</g>
<!-- SongDetailModalComponent -->
<g id="node17" class="node">
<title>SongDetailModalComponent</title>
<polygon fill="#ffffb3" stroke="black" points="584.37,-122 403.63,-122 403.63,-86 584.37,-86 584.37,-122"/>
<text text-anchor="middle" x="494" y="-99.8" font-family="Times,serif" font-size="14.00">SongDetailModalComponent</text>
</g>
<!-- SongDetailModalComponent&#45;&gt;SharedModule -->
<g id="edge17" class="edge">
<title>SongDetailModalComponent&#45;&gt;SharedModule</title>
<path fill="none" stroke="black" d="M569.25,-122.3C569.25,-140.27 569.25,-165 569.25,-165 569.25,-165 1671.45,-165 1671.45,-165"/>
<polygon fill="black" stroke="black" points="1671.45,-168.5 1681.45,-165 1671.45,-161.5 1671.45,-168.5"/>
</g>
<!-- SongGridCardComponent -->
<g id="node18" class="node">
<title>SongGridCardComponent</title>
<polygon fill="#ffffb3" stroke="black" points="385.48,-122 222.52,-122 222.52,-86 385.48,-86 385.48,-122"/>
<text text-anchor="middle" x="304" y="-99.8" font-family="Times,serif" font-size="14.00">SongGridCardComponent</text>
</g>
<!-- SongGridCardComponent&#45;&gt;SharedModule -->
<g id="edge18" class="edge">
<title>SongGridCardComponent&#45;&gt;SharedModule</title>
<path fill="none" stroke="black" d="M380.65,-122.22C380.65,-140.83 380.65,-167 380.65,-167 380.65,-167 1671.74,-167 1671.74,-167"/>
<polygon fill="black" stroke="black" points="1671.74,-170.5 1681.74,-167 1671.74,-163.5 1671.74,-170.5"/>
</g>
<!-- SongModalComponent -->
<g id="node19" class="node">
<title>SongModalComponent</title>
<polygon fill="#ffffb3" stroke="black" points="204.17,-122 57.83,-122 57.83,-86 204.17,-86 204.17,-122"/>
<text text-anchor="middle" x="131" y="-99.8" font-family="Times,serif" font-size="14.00">SongModalComponent</text>
</g>
<!-- SongModalComponent&#45;&gt;SharedModule -->
<g id="edge19" class="edge">
<title>SongModalComponent&#45;&gt;SharedModule</title>
<path fill="none" stroke="black" d="M198.05,-122.11C198.05,-141.34 198.05,-169 198.05,-169 198.05,-169 1671.73,-169 1671.73,-169"/>
<polygon fill="black" stroke="black" points="1671.73,-172.5 1681.73,-169 1671.73,-165.5 1671.73,-172.5"/>
</g>
<!-- ArtistGridCardComponent  -->
<g id="node21" class="node">
<title>ArtistGridCardComponent </title>
<polygon fill="#fb8072" stroke="black" points="3481.59,-252 3312.41,-252 3312.41,-216 3481.59,-216 3481.59,-252"/>
<text text-anchor="middle" x="3397" y="-229.8" font-family="Times,serif" font-size="14.00">ArtistGridCardComponent </text>
</g>
<!-- SharedModule&#45;&gt;ArtistGridCardComponent  -->
<g id="edge20" class="edge">
<title>SharedModule&#45;&gt;ArtistGridCardComponent </title>
<path fill="none" stroke="black" stroke-dasharray="5,2" d="M1780.33,-170C2054.55,-170 3379.12,-170 3379.12,-170 3379.12,-170 3379.12,-205.83 3379.12,-205.83"/>
<polygon fill="black" stroke="black" points="3375.63,-205.83 3379.12,-215.83 3382.63,-205.83 3375.63,-205.83"/>
</g>
<!-- AudioPlayerComponent  -->
<g id="node22" class="node">
<title>AudioPlayerComponent </title>
<polygon fill="#fb8072" stroke="black" points="3293.59,-252 3138.41,-252 3138.41,-216 3293.59,-216 3293.59,-252"/>
<text text-anchor="middle" x="3216" y="-229.8" font-family="Times,serif" font-size="14.00">AudioPlayerComponent </text>
</g>
<!-- SharedModule&#45;&gt;AudioPlayerComponent  -->
<g id="edge21" class="edge">
<title>SharedModule&#45;&gt;AudioPlayerComponent </title>
<path fill="none" stroke="black" stroke-dasharray="5,2" d="M1780.3,-172C2036.07,-172 3200.12,-172 3200.12,-172 3200.12,-172 3200.12,-205.73 3200.12,-205.73"/>
<polygon fill="black" stroke="black" points="3196.63,-205.73 3200.12,-215.73 3203.63,-205.73 3196.63,-205.73"/>
</g>
<!-- ChangePasswordModalComponent  -->
<g id="node23" class="node">
<title>ChangePasswordModalComponent </title>
<polygon fill="#fb8072" stroke="black" points="3119.8,-252 2902.2,-252 2902.2,-216 3119.8,-216 3119.8,-252"/>
<text text-anchor="middle" x="3011" y="-229.8" font-family="Times,serif" font-size="14.00">ChangePasswordModalComponent </text>
</g>
<!-- SharedModule&#45;&gt;ChangePasswordModalComponent  -->
<g id="edge22" class="edge">
<title>SharedModule&#45;&gt;ChangePasswordModalComponent </title>
<path fill="none" stroke="black" stroke-dasharray="5,2" d="M1780.25,-174C2013.63,-174 2997.12,-174 2997.12,-174 2997.12,-174 2997.12,-206 2997.12,-206"/>
<polygon fill="black" stroke="black" points="2993.63,-206 2997.12,-216 3000.63,-206 2993.63,-206"/>
</g>
<!-- ClickableArtistNamesComponent  -->
<g id="node24" class="node">
<title>ClickableArtistNamesComponent </title>
<polygon fill="#fb8072" stroke="black" points="2883.74,-252 2674.26,-252 2674.26,-216 2883.74,-216 2883.74,-252"/>
<text text-anchor="middle" x="2779" y="-229.8" font-family="Times,serif" font-size="14.00">ClickableArtistNamesComponent </text>
</g>
<!-- SharedModule&#45;&gt;ClickableArtistNamesComponent  -->
<g id="edge23" class="edge">
<title>SharedModule&#45;&gt;ClickableArtistNamesComponent </title>
<path fill="none" stroke="black" stroke-dasharray="5,2" d="M1780.28,-176C1986.19,-176 2767.12,-176 2767.12,-176 2767.12,-176 2767.12,-205.97 2767.12,-205.97"/>
<polygon fill="black" stroke="black" points="2763.63,-205.97 2767.12,-215.97 2770.63,-205.97 2763.63,-205.97"/>
</g>
<!-- DragDropDirective  -->
<g id="node25" class="node">
<title>DragDropDirective </title>
<polygon fill="#fb8072" stroke="black" points="2656.33,-252 2527.67,-252 2527.67,-216 2656.33,-216 2656.33,-252"/>
<text text-anchor="middle" x="2592" y="-229.8" font-family="Times,serif" font-size="14.00">DragDropDirective </text>
</g>
<!-- SharedModule&#45;&gt;DragDropDirective  -->
<g id="edge24" class="edge">
<title>SharedModule&#45;&gt;DragDropDirective </title>
<path fill="none" stroke="black" stroke-dasharray="5,2" d="M1780.44,-178C1962.09,-178 2582.12,-178 2582.12,-178 2582.12,-178 2582.12,-205.97 2582.12,-205.97"/>
<polygon fill="black" stroke="black" points="2578.63,-205.97 2582.12,-215.97 2585.63,-205.97 2578.63,-205.97"/>
</g>
<!-- DurationPipe  -->
<g id="node26" class="node">
<title>DurationPipe </title>
<polygon fill="#fb8072" stroke="black" points="2510.15,-252 2415.85,-252 2415.85,-216 2510.15,-216 2510.15,-252"/>
<text text-anchor="middle" x="2463" y="-229.8" font-family="Times,serif" font-size="14.00">DurationPipe </text>
</g>
<!-- SharedModule&#45;&gt;DurationPipe  -->
<g id="edge25" class="edge">
<title>SharedModule&#45;&gt;DurationPipe </title>
<path fill="none" stroke="black" stroke-dasharray="5,2" d="M1780.45,-180C1943.63,-180 2454.62,-180 2454.62,-180 2454.62,-180 2454.62,-205.72 2454.62,-205.72"/>
<polygon fill="black" stroke="black" points="2451.13,-205.72 2454.62,-215.72 2458.13,-205.72 2451.13,-205.72"/>
</g>
<!-- EditProfileModalComponent  -->
<g id="node27" class="node">
<title>EditProfileModalComponent </title>
<polygon fill="#fb8072" stroke="black" points="2398.32,-252 2215.68,-252 2215.68,-216 2398.32,-216 2398.32,-252"/>
<text text-anchor="middle" x="2307" y="-229.8" font-family="Times,serif" font-size="14.00">EditProfileModalComponent </text>
</g>
<!-- SharedModule&#45;&gt;EditProfileModalComponent  -->
<g id="edge26" class="edge">
<title>SharedModule&#45;&gt;EditProfileModalComponent </title>
<path fill="none" stroke="black" stroke-dasharray="5,2" d="M1780.51,-182C1918.98,-182 2300.12,-182 2300.12,-182 2300.12,-182 2300.12,-205.81 2300.12,-205.81"/>
<polygon fill="black" stroke="black" points="2296.63,-205.81 2300.12,-215.81 2303.63,-205.81 2296.63,-205.81"/>
</g>
<!-- FollowArtistButtonComponent  -->
<g id="node28" class="node">
<title>FollowArtistButtonComponent </title>
<polygon fill="#fb8072" stroke="black" points="2197,-252 2003,-252 2003,-216 2197,-216 2197,-252"/>
<text text-anchor="middle" x="2100" y="-229.8" font-family="Times,serif" font-size="14.00">FollowArtistButtonComponent </text>
</g>
<!-- SharedModule&#45;&gt;FollowArtistButtonComponent  -->
<g id="edge27" class="edge">
<title>SharedModule&#45;&gt;FollowArtistButtonComponent </title>
<path fill="none" stroke="black" stroke-dasharray="5,2" d="M1780.54,-184C1873.4,-184 2064.33,-184 2064.33,-184 2064.33,-184 2064.33,-205.95 2064.33,-205.95"/>
<polygon fill="black" stroke="black" points="2060.83,-205.95 2064.33,-215.95 2067.83,-205.95 2060.83,-205.95"/>
</g>
<!-- GlobalSearchComponent  -->
<g id="node29" class="node">
<title>GlobalSearchComponent </title>
<polygon fill="#fb8072" stroke="black" points="1984.52,-252 1823.48,-252 1823.48,-216 1984.52,-216 1984.52,-252"/>
<text text-anchor="middle" x="1904" y="-229.8" font-family="Times,serif" font-size="14.00">GlobalSearchComponent </text>
</g>
<!-- SharedModule&#45;&gt;GlobalSearchComponent  -->
<g id="edge28" class="edge">
<title>SharedModule&#45;&gt;GlobalSearchComponent </title>
<path fill="none" stroke="black" stroke-dasharray="5,2" d="M1780.24,-186C1822.03,-186 1875.25,-186 1875.25,-186 1875.25,-186 1875.25,-205.85 1875.25,-205.85"/>
<polygon fill="black" stroke="black" points="1871.75,-205.85 1875.25,-215.85 1878.75,-205.85 1871.75,-205.85"/>
</g>
<!-- LikeButtonComponent  -->
<g id="node30" class="node">
<title>LikeButtonComponent </title>
<polygon fill="#fb8072" stroke="black" points="1805.11,-252 1656.89,-252 1656.89,-216 1805.11,-216 1805.11,-252"/>
<text text-anchor="middle" x="1731" y="-229.8" font-family="Times,serif" font-size="14.00">LikeButtonComponent </text>
</g>
<!-- SharedModule&#45;&gt;LikeButtonComponent  -->
<g id="edge29" class="edge">
<title>SharedModule&#45;&gt;LikeButtonComponent </title>
<path fill="none" stroke="black" stroke-dasharray="5,2" d="M1731,-187.11C1731,-187.11 1731,-205.99 1731,-205.99"/>
<polygon fill="black" stroke="black" points="1727.5,-205.99 1731,-215.99 1734.5,-205.99 1727.5,-205.99"/>
</g>
<!-- PasswordVisibilityPipe  -->
<g id="node31" class="node">
<title>PasswordVisibilityPipe </title>
<polygon fill="#fb8072" stroke="black" points="1638.44,-252 1487.56,-252 1487.56,-216 1638.44,-216 1638.44,-252"/>
<text text-anchor="middle" x="1563" y="-229.8" font-family="Times,serif" font-size="14.00">PasswordVisibilityPipe </text>
</g>
<!-- SharedModule&#45;&gt;PasswordVisibilityPipe  -->
<g id="edge30" class="edge">
<title>SharedModule&#45;&gt;PasswordVisibilityPipe </title>
<path fill="none" stroke="black" stroke-dasharray="5,2" d="M1681.75,-186C1625.66,-186 1541.68,-186 1541.68,-186 1541.68,-186 1541.68,-205.85 1541.68,-205.85"/>
<polygon fill="black" stroke="black" points="1538.18,-205.85 1541.68,-215.85 1545.18,-205.85 1538.18,-205.85"/>
</g>
<!-- PictureSelectableComponent  -->
<g id="node32" class="node">
<title>PictureSelectableComponent </title>
<polygon fill="#fb8072" stroke="black" points="1470.01,-252 1287.99,-252 1287.99,-216 1470.01,-216 1470.01,-252"/>
<text text-anchor="middle" x="1379" y="-229.8" font-family="Times,serif" font-size="14.00">PictureSelectableComponent </text>
</g>
<!-- SharedModule&#45;&gt;PictureSelectableComponent  -->
<g id="edge31" class="edge">
<title>SharedModule&#45;&gt;PictureSelectableComponent </title>
<path fill="none" stroke="black" stroke-dasharray="5,2" d="M1681.78,-184C1579.72,-184 1354.5,-184 1354.5,-184 1354.5,-184 1354.5,-205.95 1354.5,-205.95"/>
<polygon fill="black" stroke="black" points="1351,-205.95 1354.5,-215.95 1358,-205.95 1351,-205.95"/>
</g>
<!-- PlayButtonComponent  -->
<g id="node33" class="node">
<title>PlayButtonComponent </title>
<polygon fill="#fb8072" stroke="black" points="1269.84,-252 1122.16,-252 1122.16,-216 1269.84,-216 1269.84,-252"/>
<text text-anchor="middle" x="1196" y="-229.8" font-family="Times,serif" font-size="14.00">PlayButtonComponent </text>
</g>
<!-- SharedModule&#45;&gt;PlayButtonComponent  -->
<g id="edge32" class="edge">
<title>SharedModule&#45;&gt;PlayButtonComponent </title>
<path fill="none" stroke="black" stroke-dasharray="5,2" d="M1681.74,-182C1550.51,-182 1202.38,-182 1202.38,-182 1202.38,-182 1202.38,-205.81 1202.38,-205.81"/>
<polygon fill="black" stroke="black" points="1198.88,-205.81 1202.38,-215.81 1205.88,-205.81 1198.88,-205.81"/>
</g>
<!-- PlaylistDurationPipe  -->
<g id="node34" class="node">
<title>PlaylistDurationPipe </title>
<polygon fill="#fb8072" stroke="black" points="1104.16,-252 967.84,-252 967.84,-216 1104.16,-216 1104.16,-252"/>
<text text-anchor="middle" x="1036" y="-229.8" font-family="Times,serif" font-size="14.00">PlaylistDurationPipe </text>
</g>
<!-- SharedModule&#45;&gt;PlaylistDurationPipe  -->
<g id="edge33" class="edge">
<title>SharedModule&#45;&gt;PlaylistDurationPipe </title>
<path fill="none" stroke="black" stroke-dasharray="5,2" d="M1681.62,-180C1524.18,-180 1044.38,-180 1044.38,-180 1044.38,-180 1044.38,-205.72 1044.38,-205.72"/>
<polygon fill="black" stroke="black" points="1040.88,-205.72 1044.38,-215.72 1047.88,-205.72 1040.88,-205.72"/>
</g>
<!-- PlaylistLikeButtonComponent  -->
<g id="node35" class="node">
<title>PlaylistLikeButtonComponent </title>
<polygon fill="#fb8072" stroke="black" points="950.11,-252 759.89,-252 759.89,-216 950.11,-216 950.11,-252"/>
<text text-anchor="middle" x="855" y="-229.8" font-family="Times,serif" font-size="14.00">PlaylistLikeButtonComponent </text>
</g>
<!-- SharedModule&#45;&gt;PlaylistLikeButtonComponent  -->
<g id="edge34" class="edge">
<title>SharedModule&#45;&gt;PlaylistLikeButtonComponent </title>
<path fill="none" stroke="black" stroke-dasharray="5,2" d="M1681.64,-178C1498.01,-178 864.88,-178 864.88,-178 864.88,-178 864.88,-205.97 864.88,-205.97"/>
<polygon fill="black" stroke="black" points="861.38,-205.97 864.88,-215.97 868.38,-205.97 861.38,-205.97"/>
</g>
<!-- PlaylistModalComponent  -->
<g id="node36" class="node">
<title>PlaylistModalComponent </title>
<polygon fill="#fb8072" stroke="black" points="741.89,-252 578.11,-252 578.11,-216 741.89,-216 741.89,-252"/>
<text text-anchor="middle" x="660" y="-229.8" font-family="Times,serif" font-size="14.00">PlaylistModalComponent </text>
</g>
<!-- SharedModule&#45;&gt;PlaylistModalComponent  -->
<g id="edge35" class="edge">
<title>SharedModule&#45;&gt;PlaylistModalComponent </title>
<path fill="none" stroke="black" stroke-dasharray="5,2" d="M1681.69,-176C1472.84,-176 671.88,-176 671.88,-176 671.88,-176 671.88,-205.97 671.88,-205.97"/>
<polygon fill="black" stroke="black" points="668.38,-205.97 671.88,-215.97 675.38,-205.97 668.38,-205.97"/>
</g>
<!-- SongDetailModalComponent  -->
<g id="node37" class="node">
<title>SongDetailModalComponent </title>
<polygon fill="#fb8072" stroke="black" points="560.37,-252 375.63,-252 375.63,-216 560.37,-216 560.37,-252"/>
<text text-anchor="middle" x="468" y="-229.8" font-family="Times,serif" font-size="14.00">SongDetailModalComponent </text>
</g>
<!-- SharedModule&#45;&gt;SongDetailModalComponent  -->
<g id="edge36" class="edge">
<title>SharedModule&#45;&gt;SongDetailModalComponent </title>
<path fill="none" stroke="black" stroke-dasharray="5,2" d="M1681.65,-174C1450.01,-174 481.88,-174 481.88,-174 481.88,-174 481.88,-206 481.88,-206"/>
<polygon fill="black" stroke="black" points="478.38,-206 481.88,-216 485.38,-206 478.38,-206"/>
</g>
<!-- SongGridCardComponent  -->
<g id="node38" class="node">
<title>SongGridCardComponent </title>
<polygon fill="#fb8072" stroke="black" points="358.49,-252 191.51,-252 191.51,-216 358.49,-216 358.49,-252"/>
<text text-anchor="middle" x="275" y="-229.8" font-family="Times,serif" font-size="14.00">SongGridCardComponent </text>
</g>
<!-- SharedModule&#45;&gt;SongGridCardComponent  -->
<g id="edge37" class="edge">
<title>SharedModule&#45;&gt;SongGridCardComponent </title>
<path fill="none" stroke="black" stroke-dasharray="5,2" d="M1681.41,-172C1428.09,-172 290.38,-172 290.38,-172 290.38,-172 290.38,-205.73 290.38,-205.73"/>
<polygon fill="black" stroke="black" points="286.88,-205.73 290.38,-215.73 293.88,-205.73 286.88,-205.73"/>
</g>
<!-- SongModalComponent  -->
<g id="node39" class="node">
<title>SongModalComponent </title>
<polygon fill="#fb8072" stroke="black" points="174.16,-252 23.84,-252 23.84,-216 174.16,-216 174.16,-252"/>
<text text-anchor="middle" x="99" y="-229.8" font-family="Times,serif" font-size="14.00">SongModalComponent </text>
</g>
<!-- SharedModule&#45;&gt;SongModalComponent  -->
<g id="edge38" class="edge">
<title>SharedModule&#45;&gt;SongModalComponent </title>
<path fill="none" stroke="black" stroke-dasharray="5,2" d="M1681.78,-170C1411.1,-170 115.88,-170 115.88,-170 115.88,-170 115.88,-205.83 115.88,-205.83"/>
<polygon fill="black" stroke="black" points="112.38,-205.83 115.87,-215.83 119.38,-205.83 112.38,-205.83"/>
</g>
</g>
</svg>
