<?xml version="1.0" encoding="UTF-8" standalone="no"?>
<!DOCTYPE svg PUBLIC "-//W3C//DTD SVG 1.1//EN"
 "http://www.w3.org/Graphics/SVG/1.1/DTD/svg11.dtd">
<!-- Generated by graphviz version 2.47.0 (20210316.0004)
 -->
<!-- Title: dependencies Pages: 1 -->
<svg width="512pt" height="211pt"
 viewBox="0.00 0.00 512.00 211.00" xmlns="http://www.w3.org/2000/svg" xmlns:xlink="http://www.w3.org/1999/xlink">
<g id="graph0" class="graph" transform="scale(1 1) rotate(0) translate(4 207)">
<title>dependencies</title>
<polygon fill="white" stroke="transparent" points="-4,4 -4,-207 508,-207 508,4 -4,4"/>
<text text-anchor="start" x="231.01" y="-42.4" font-family="Times-12" font-weight="bold" font-size="14.00">Legend</text>
<polygon fill="#ffffb3" stroke="transparent" points="18,-10 18,-30 38,-30 38,-10 18,-10"/>
<text text-anchor="start" x="41.63" y="-15.4" font-family="Times-12" font-size="14.00"> &#160;Declarations</text>
<polygon fill="#8dd3c7" stroke="transparent" points="131,-10 131,-30 151,-30 151,-10 131,-10"/>
<text text-anchor="start" x="154.73" y="-15.4" font-family="Times-12" font-size="14.00"> &#160;Module</text>
<polygon fill="#80b1d3" stroke="transparent" points="217,-10 217,-30 237,-30 237,-10 217,-10"/>
<text text-anchor="start" x="240.78" y="-15.4" font-family="Times-12" font-size="14.00"> &#160;Bootstrap</text>
<polygon fill="#fdb462" stroke="transparent" points="314,-10 314,-30 334,-30 334,-10 314,-10"/>
<text text-anchor="start" x="337.67" y="-15.4" font-family="Times-12" font-size="14.00"> &#160;Providers</text>
<polygon fill="#fb8072" stroke="transparent" points="410,-10 410,-30 430,-30 430,-10 410,-10"/>
<text text-anchor="start" x="433.73" y="-15.4" font-family="Times-12" font-size="14.00"> &#160;Exports</text>
<g id="clust1" class="cluster">
<title>cluster_ArtistProfilePageModule</title>
<polygon fill="none" stroke="black" stroke-dasharray="1,5" points="8,-70 8,-195 496,-195 496,-70 8,-70"/>
</g>
<g id="clust2" class="cluster">
<title>cluster_ArtistProfilePageModule_declarations</title>
<polygon fill="none" stroke="black" points="358,-78 358,-130 488,-130 488,-78 358,-78"/>
</g>
<g id="clust4" class="cluster">
<title>cluster_ArtistProfilePageModule_imports</title>
<polygon fill="none" stroke="black" points="16,-78 16,-130 350,-130 350,-78 16,-78"/>
</g>
<!-- ArtistProfilePage -->
<g id="node1" class="node">
<title>ArtistProfilePage</title>
<polygon fill="#ffffb3" stroke="black" points="479.7,-122 366.3,-122 366.3,-86 479.7,-86 479.7,-122"/>
<text text-anchor="middle" x="423" y="-99.8" font-family="Times,serif" font-size="14.00">ArtistProfilePage</text>
</g>
<!-- ArtistProfilePageModule -->
<g id="node2" class="node">
<title>ArtistProfilePageModule</title>
<polygon fill="#8dd3c7" stroke="black" points="319.25,-187 316.25,-191 295.25,-191 292.25,-187 162.75,-187 162.75,-151 319.25,-151 319.25,-187"/>
<text text-anchor="middle" x="241" y="-164.8" font-family="Times,serif" font-size="14.00">ArtistProfilePageModule</text>
</g>
<!-- ArtistProfilePage&#45;&gt;ArtistProfilePageModule -->
<g id="edge1" class="edge">
<title>ArtistProfilePage&#45;&gt;ArtistProfilePageModule</title>
<path fill="none" stroke="black" d="M423,-122.11C423,-141.34 423,-169 423,-169 423,-169 329.5,-169 329.5,-169"/>
<polygon fill="black" stroke="black" points="329.5,-165.5 319.5,-169 329.5,-172.5 329.5,-165.5"/>
</g>
<!-- ArtistProfilePageRoutingModule -->
<g id="node3" class="node">
<title>ArtistProfilePageRoutingModule</title>
<polygon fill="#8dd3c7" stroke="black" points="341.86,-122 338.86,-126 317.86,-126 314.86,-122 140.14,-122 140.14,-86 341.86,-86 341.86,-122"/>
<text text-anchor="middle" x="241" y="-99.8" font-family="Times,serif" font-size="14.00">ArtistProfilePageRoutingModule</text>
</g>
<!-- ArtistProfilePageRoutingModule&#45;&gt;ArtistProfilePageModule -->
<g id="edge2" class="edge">
<title>ArtistProfilePageRoutingModule&#45;&gt;ArtistProfilePageModule</title>
<path fill="none" stroke="black" d="M241,-122.11C241,-122.11 241,-140.99 241,-140.99"/>
<polygon fill="black" stroke="black" points="237.5,-140.99 241,-150.99 244.5,-140.99 237.5,-140.99"/>
</g>
<!-- SharedModule -->
<g id="node4" class="node">
<title>SharedModule</title>
<polygon fill="#8dd3c7" stroke="black" points="122.42,-122 119.42,-126 98.42,-126 95.42,-122 23.58,-122 23.58,-86 122.42,-86 122.42,-122"/>
<text text-anchor="middle" x="73" y="-99.8" font-family="Times,serif" font-size="14.00">SharedModule</text>
</g>
<!-- SharedModule&#45;&gt;ArtistProfilePageModule -->
<g id="edge3" class="edge">
<title>SharedModule&#45;&gt;ArtistProfilePageModule</title>
<path fill="none" stroke="black" d="M73,-122.11C73,-141.34 73,-169 73,-169 73,-169 152.41,-169 152.41,-169"/>
<polygon fill="black" stroke="black" points="152.41,-172.5 162.41,-169 152.41,-165.5 152.41,-172.5"/>
</g>
</g>
</svg>
