<?xml version="1.0" encoding="UTF-8" standalone="no"?>
<!DOCTYPE svg PUBLIC "-//W3C//DTD SVG 1.1//EN"
 "http://www.w3.org/Graphics/SVG/1.1/DTD/svg11.dtd">
<!-- Generated by graphviz version 2.47.0 (20210316.0004)
 -->
<!-- Title: dependencies Pages: 1 -->
<svg width="1726pt" height="284pt"
 viewBox="0.00 0.00 1726.00 284.00" xmlns="http://www.w3.org/2000/svg" xmlns:xlink="http://www.w3.org/1999/xlink">
<g id="graph0" class="graph" transform="scale(1 1) rotate(0) translate(4 280)">
<title>dependencies</title>
<polygon fill="white" stroke="transparent" points="-4,4 -4,-280 1722,-280 1722,4 -4,4"/>
<text text-anchor="start" x="838.01" y="-42.4" font-family="Times-12" font-weight="bold" font-size="14.00">Legend</text>
<polygon fill="#ffffb3" stroke="transparent" points="625,-10 625,-30 645,-30 645,-10 625,-10"/>
<text text-anchor="start" x="648.63" y="-15.4" font-family="Times-12" font-size="14.00"> &#160;Declarations</text>
<polygon fill="#8dd3c7" stroke="transparent" points="738,-10 738,-30 758,-30 758,-10 738,-10"/>
<text text-anchor="start" x="761.73" y="-15.4" font-family="Times-12" font-size="14.00"> &#160;Module</text>
<polygon fill="#80b1d3" stroke="transparent" points="824,-10 824,-30 844,-30 844,-10 824,-10"/>
<text text-anchor="start" x="847.78" y="-15.4" font-family="Times-12" font-size="14.00"> &#160;Bootstrap</text>
<polygon fill="#fdb462" stroke="transparent" points="921,-10 921,-30 941,-30 941,-10 921,-10"/>
<text text-anchor="start" x="944.67" y="-15.4" font-family="Times-12" font-size="14.00"> &#160;Providers</text>
<polygon fill="#fb8072" stroke="transparent" points="1017,-10 1017,-30 1037,-30 1037,-10 1017,-10"/>
<text text-anchor="start" x="1040.73" y="-15.4" font-family="Times-12" font-size="14.00"> &#160;Exports</text>
<g id="clust1" class="cluster">
<title>cluster_AppModule</title>
<polygon fill="none" stroke="black" stroke-dasharray="1,5" points="8,-70 8,-268 1710,-268 1710,-70 8,-70"/>
</g>
<g id="clust2" class="cluster">
<title>cluster_AppModule_declarations</title>
<polygon fill="none" stroke="black" points="1580,-78 1580,-130 1702,-130 1702,-78 1580,-78"/>
</g>
<g id="clust6" class="cluster">
<title>cluster_AppModule_bootstrap</title>
<polygon fill="none" stroke="black" points="713,-208 713,-260 837,-260 837,-208 713,-208"/>
</g>
<g id="clust7" class="cluster">
<title>cluster_AppModule_providers</title>
<polygon fill="none" stroke="black" points="285,-78 285,-130 1572,-130 1572,-78 285,-78"/>
</g>
<g id="clust4" class="cluster">
<title>cluster_AppModule_imports</title>
<polygon fill="none" stroke="black" points="16,-78 16,-130 277,-130 277,-78 16,-78"/>
</g>
<!-- AppComponent -->
<g id="node1" class="node">
<title>AppComponent</title>
<polygon fill="#ffffb3" stroke="black" points="1693.94,-122 1588.06,-122 1588.06,-86 1693.94,-86 1693.94,-122"/>
<text text-anchor="middle" x="1641" y="-99.8" font-family="Times,serif" font-size="14.00">AppComponent</text>
</g>
<!-- AppModule -->
<g id="node2" class="node">
<title>AppModule</title>
<polygon fill="#8dd3c7" stroke="black" points="816.66,-187 813.66,-191 792.66,-191 789.66,-187 733.34,-187 733.34,-151 816.66,-151 816.66,-187"/>
<text text-anchor="middle" x="775" y="-164.8" font-family="Times,serif" font-size="14.00">AppModule</text>
</g>
<!-- AppComponent&#45;&gt;AppModule -->
<g id="edge1" class="edge">
<title>AppComponent&#45;&gt;AppModule</title>
<path fill="none" stroke="black" d="M1641,-122.01C1641,-144.49 1641,-180 1641,-180 1641,-180 826.77,-180 826.77,-180"/>
<polygon fill="black" stroke="black" points="826.77,-176.5 816.77,-180 826.77,-183.5 826.77,-176.5"/>
</g>
<!-- AppComponent  -->
<g id="node5" class="node">
<title>AppComponent </title>
<polygon fill="#80b1d3" stroke="black" points="829.44,-252 720.56,-252 720.56,-216 829.44,-216 829.44,-252"/>
<text text-anchor="middle" x="775" y="-229.8" font-family="Times,serif" font-size="14.00">AppComponent </text>
</g>
<!-- AppModule&#45;&gt;AppComponent  -->
<g id="edge4" class="edge">
<title>AppModule&#45;&gt;AppComponent </title>
<path fill="none" stroke="black" stroke-dasharray="1,5" d="M775,-187.11C775,-187.11 775,-205.99 775,-205.99"/>
<polygon fill="black" stroke="black" points="771.5,-205.99 775,-215.99 778.5,-205.99 771.5,-205.99"/>
</g>
<!-- AppRoutingModule -->
<g id="node3" class="node">
<title>AppRoutingModule</title>
<polygon fill="#8dd3c7" stroke="black" points="269.27,-122 266.27,-126 245.27,-126 242.27,-122 140.73,-122 140.73,-86 269.27,-86 269.27,-122"/>
<text text-anchor="middle" x="205" y="-99.8" font-family="Times,serif" font-size="14.00">AppRoutingModule</text>
</g>
<!-- AppRoutingModule&#45;&gt;AppModule -->
<g id="edge2" class="edge">
<title>AppRoutingModule&#45;&gt;AppModule</title>
<path fill="none" stroke="black" d="M205,-122.13C205,-142.57 205,-173 205,-173 205,-173 723.09,-173 723.09,-173"/>
<polygon fill="black" stroke="black" points="723.09,-176.5 733.09,-173 723.09,-169.5 723.09,-176.5"/>
</g>
<!-- SharedModule -->
<g id="node4" class="node">
<title>SharedModule</title>
<polygon fill="#8dd3c7" stroke="black" points="122.42,-122 119.42,-126 98.42,-126 95.42,-122 23.58,-122 23.58,-86 122.42,-86 122.42,-122"/>
<text text-anchor="middle" x="73" y="-99.8" font-family="Times,serif" font-size="14.00">SharedModule</text>
</g>
<!-- SharedModule&#45;&gt;AppModule -->
<g id="edge3" class="edge">
<title>SharedModule&#45;&gt;AppModule</title>
<path fill="none" stroke="black" d="M73,-122.01C73,-144.49 73,-180 73,-180 73,-180 723.19,-180 723.19,-180"/>
<polygon fill="black" stroke="black" points="723.19,-183.5 733.19,-180 723.19,-176.5 723.19,-183.5"/>
</g>
<!-- ArtistsService -->
<g id="node6" class="node">
<title>ArtistsService</title>
<ellipse fill="#fdb462" stroke="black" cx="1498" cy="-104" rx="65.98" ry="18"/>
<text text-anchor="middle" x="1498" y="-99.8" font-family="Times,serif" font-size="14.00">ArtistsService</text>
</g>
<!-- ArtistsService&#45;&gt;AppModule -->
<g id="edge5" class="edge">
<title>ArtistsService&#45;&gt;AppModule</title>
<path fill="none" stroke="black" d="M1498,-122.13C1498,-142.57 1498,-173 1498,-173 1498,-173 826.73,-173 826.73,-173"/>
<polygon fill="black" stroke="black" points="826.73,-169.5 816.73,-173 826.73,-176.5 826.73,-169.5"/>
</g>
<!-- AudioPlayerService -->
<g id="node7" class="node">
<title>AudioPlayerService</title>
<ellipse fill="#fdb462" stroke="black" cx="1325" cy="-104" rx="88.6" ry="18"/>
<text text-anchor="middle" x="1325" y="-99.8" font-family="Times,serif" font-size="14.00">AudioPlayerService</text>
</g>
<!-- AudioPlayerService&#45;&gt;AppModule -->
<g id="edge6" class="edge">
<title>AudioPlayerService&#45;&gt;AppModule</title>
<path fill="none" stroke="black" d="M1325,-122.27C1325,-140.56 1325,-166 1325,-166 1325,-166 826.79,-166 826.79,-166"/>
<polygon fill="black" stroke="black" points="826.79,-162.5 816.79,-166 826.79,-169.5 826.79,-162.5"/>
</g>
<!-- EnhancedAudioPlayerService -->
<g id="node8" class="node">
<title>EnhancedAudioPlayerService</title>
<ellipse fill="#fdb462" stroke="black" cx="1091" cy="-104" rx="126.75" ry="18"/>
<text text-anchor="middle" x="1091" y="-99.8" font-family="Times,serif" font-size="14.00">EnhancedAudioPlayerService</text>
</g>
<!-- EnhancedAudioPlayerService&#45;&gt;AppModule -->
<g id="edge7" class="edge">
<title>EnhancedAudioPlayerService&#45;&gt;AppModule</title>
<path fill="none" stroke="black" d="M1091,-122.01C1091,-138.05 1091,-159 1091,-159 1091,-159 826.96,-159 826.96,-159"/>
<polygon fill="black" stroke="black" points="826.96,-155.5 816.96,-159 826.96,-162.5 826.96,-155.5"/>
</g>
<!-- PlaylistsService -->
<g id="node9" class="node">
<title>PlaylistsService</title>
<ellipse fill="#fdb462" stroke="black" cx="873" cy="-104" rx="72.94" ry="18"/>
<text text-anchor="middle" x="873" y="-99.8" font-family="Times,serif" font-size="14.00">PlaylistsService</text>
</g>
<!-- PlaylistsService&#45;&gt;AppModule -->
<g id="edge8" class="edge">
<title>PlaylistsService&#45;&gt;AppModule</title>
<path fill="none" stroke="black" d="M808.55,-112.5C808.55,-112.5 808.55,-140.91 808.55,-140.91"/>
<polygon fill="black" stroke="black" points="805.05,-140.91 808.55,-150.91 812.05,-140.91 805.05,-140.91"/>
</g>
<!-- SongEnrichmentService -->
<g id="node10" class="node">
<title>SongEnrichmentService</title>
<ellipse fill="#fdb462" stroke="black" cx="677" cy="-104" rx="104.8" ry="18"/>
<text text-anchor="middle" x="677" y="-99.8" font-family="Times,serif" font-size="14.00">SongEnrichmentService</text>
</g>
<!-- SongEnrichmentService&#45;&gt;AppModule -->
<g id="edge9" class="edge">
<title>SongEnrichmentService&#45;&gt;AppModule</title>
<path fill="none" stroke="black" d="M757.53,-115.62C757.53,-115.62 757.53,-140.85 757.53,-140.85"/>
<polygon fill="black" stroke="black" points="754.04,-140.85 757.53,-150.85 761.04,-140.85 754.04,-140.85"/>
</g>
<!-- SongsService -->
<g id="node11" class="node">
<title>SongsService</title>
<ellipse fill="#fdb462" stroke="black" cx="491" cy="-104" rx="63.7" ry="18"/>
<text text-anchor="middle" x="491" y="-99.8" font-family="Times,serif" font-size="14.00">SongsService</text>
</g>
<!-- SongsService&#45;&gt;AppModule -->
<g id="edge10" class="edge">
<title>SongsService&#45;&gt;AppModule</title>
<path fill="none" stroke="black" d="M491,-122.01C491,-138.05 491,-159 491,-159 491,-159 723.09,-159 723.09,-159"/>
<polygon fill="black" stroke="black" points="723.09,-162.5 733.09,-159 723.09,-155.5 723.09,-162.5"/>
</g>
<!-- UserService -->
<g id="node12" class="node">
<title>UserService</title>
<ellipse fill="#fdb462" stroke="black" cx="351" cy="-104" rx="58.44" ry="18"/>
<text text-anchor="middle" x="351" y="-99.8" font-family="Times,serif" font-size="14.00">UserService</text>
</g>
<!-- UserService&#45;&gt;AppModule -->
<g id="edge11" class="edge">
<title>UserService&#45;&gt;AppModule</title>
<path fill="none" stroke="black" d="M351,-122.27C351,-140.56 351,-166 351,-166 351,-166 723.18,-166 723.18,-166"/>
<polygon fill="black" stroke="black" points="723.18,-169.5 733.18,-166 723.18,-162.5 723.18,-169.5"/>
</g>
</g>
</svg>
