<?xml version="1.0" encoding="UTF-8" standalone="no"?>
<!DOCTYPE svg PUBLIC "-//W3C//DTD SVG 1.1//EN"
 "http://www.w3.org/Graphics/SVG/1.1/DTD/svg11.dtd">
<!-- Generated by graphviz version 2.47.0 (20210316.0004)
 -->
<!-- Title: dependencies Pages: 1 -->
<svg width="504pt" height="211pt"
 viewBox="0.00 0.00 504.00 211.00" xmlns="http://www.w3.org/2000/svg" xmlns:xlink="http://www.w3.org/1999/xlink">
<g id="graph0" class="graph" transform="scale(1 1) rotate(0) translate(4 207)">
<title>dependencies</title>
<polygon fill="white" stroke="transparent" points="-4,4 -4,-207 500,-207 500,4 -4,4"/>
<text text-anchor="start" x="227.01" y="-42.4" font-family="Times-12" font-weight="bold" font-size="14.00">Legend</text>
<polygon fill="#ffffb3" stroke="transparent" points="14,-10 14,-30 34,-30 34,-10 14,-10"/>
<text text-anchor="start" x="37.63" y="-15.4" font-family="Times-12" font-size="14.00"> &#160;Declarations</text>
<polygon fill="#8dd3c7" stroke="transparent" points="127,-10 127,-30 147,-30 147,-10 127,-10"/>
<text text-anchor="start" x="150.73" y="-15.4" font-family="Times-12" font-size="14.00"> &#160;Module</text>
<polygon fill="#80b1d3" stroke="transparent" points="213,-10 213,-30 233,-30 233,-10 213,-10"/>
<text text-anchor="start" x="236.78" y="-15.4" font-family="Times-12" font-size="14.00"> &#160;Bootstrap</text>
<polygon fill="#fdb462" stroke="transparent" points="310,-10 310,-30 330,-30 330,-10 310,-10"/>
<text text-anchor="start" x="333.67" y="-15.4" font-family="Times-12" font-size="14.00"> &#160;Providers</text>
<polygon fill="#fb8072" stroke="transparent" points="406,-10 406,-30 426,-30 426,-10 406,-10"/>
<text text-anchor="start" x="429.73" y="-15.4" font-family="Times-12" font-size="14.00"> &#160;Exports</text>
<g id="clust1" class="cluster">
<title>cluster_SongsPageModule</title>
<polygon fill="none" stroke="black" stroke-dasharray="1,5" points="40,-70 40,-195 456,-195 456,-70 40,-70"/>
</g>
<g id="clust4" class="cluster">
<title>cluster_SongsPageModule_imports</title>
<polygon fill="none" stroke="black" points="150,-78 150,-130 448,-130 448,-78 150,-78"/>
</g>
<g id="clust2" class="cluster">
<title>cluster_SongsPageModule_declarations</title>
<polygon fill="none" stroke="black" points="48,-78 48,-130 142,-130 142,-78 48,-78"/>
</g>
<!-- SongsPage -->
<g id="node1" class="node">
<title>SongsPage</title>
<polygon fill="#ffffb3" stroke="black" points="133.94,-122 56.06,-122 56.06,-86 133.94,-86 133.94,-122"/>
<text text-anchor="middle" x="95" y="-99.8" font-family="Times,serif" font-size="14.00">SongsPage</text>
</g>
<!-- SongsPageModule -->
<g id="node2" class="node">
<title>SongsPageModule</title>
<polygon fill="#8dd3c7" stroke="black" points="301.49,-187 298.49,-191 277.49,-191 274.49,-187 180.51,-187 180.51,-151 301.49,-151 301.49,-187"/>
<text text-anchor="middle" x="241" y="-164.8" font-family="Times,serif" font-size="14.00">SongsPageModule</text>
</g>
<!-- SongsPage&#45;&gt;SongsPageModule -->
<g id="edge1" class="edge">
<title>SongsPage&#45;&gt;SongsPageModule</title>
<path fill="none" stroke="black" d="M95,-122.11C95,-141.34 95,-169 95,-169 95,-169 170.35,-169 170.35,-169"/>
<polygon fill="black" stroke="black" points="170.35,-172.5 180.35,-169 170.35,-165.5 170.35,-172.5"/>
</g>
<!-- SharedModule -->
<g id="node3" class="node">
<title>SharedModule</title>
<polygon fill="#8dd3c7" stroke="black" points="440.42,-122 437.42,-126 416.42,-126 413.42,-122 341.58,-122 341.58,-86 440.42,-86 440.42,-122"/>
<text text-anchor="middle" x="391" y="-99.8" font-family="Times,serif" font-size="14.00">SharedModule</text>
</g>
<!-- SharedModule&#45;&gt;SongsPageModule -->
<g id="edge2" class="edge">
<title>SharedModule&#45;&gt;SongsPageModule</title>
<path fill="none" stroke="black" d="M391,-122.11C391,-141.34 391,-169 391,-169 391,-169 311.58,-169 311.58,-169"/>
<polygon fill="black" stroke="black" points="311.58,-165.5 301.58,-169 311.58,-172.5 311.58,-165.5"/>
</g>
<!-- SongsPageRoutingModule -->
<g id="node4" class="node">
<title>SongsPageRoutingModule</title>
<polygon fill="#8dd3c7" stroke="black" points="324.11,-122 321.11,-126 300.11,-126 297.11,-122 157.89,-122 157.89,-86 324.11,-86 324.11,-122"/>
<text text-anchor="middle" x="241" y="-99.8" font-family="Times,serif" font-size="14.00">SongsPageRoutingModule</text>
</g>
<!-- SongsPageRoutingModule&#45;&gt;SongsPageModule -->
<g id="edge3" class="edge">
<title>SongsPageRoutingModule&#45;&gt;SongsPageModule</title>
<path fill="none" stroke="black" d="M241,-122.11C241,-122.11 241,-140.99 241,-140.99"/>
<polygon fill="black" stroke="black" points="237.5,-140.99 241,-150.99 244.5,-140.99 237.5,-140.99"/>
</g>
</g>
</svg>
