<?xml version="1.0" encoding="UTF-8" standalone="no"?>
<!DOCTYPE svg PUBLIC "-//W3C//DTD SVG 1.1//EN"
 "http://www.w3.org/Graphics/SVG/1.1/DTD/svg11.dtd">
<!-- Generated by graphviz version 2.47.0 (20210316.0004)
 -->
<!-- Title: dependencies Pages: 1 -->
<svg width="524pt" height="211pt"
 viewBox="0.00 0.00 524.00 211.00" xmlns="http://www.w3.org/2000/svg" xmlns:xlink="http://www.w3.org/1999/xlink">
<g id="graph0" class="graph" transform="scale(1 1) rotate(0) translate(4 207)">
<title>dependencies</title>
<polygon fill="white" stroke="transparent" points="-4,4 -4,-207 520,-207 520,4 -4,4"/>
<text text-anchor="start" x="237.01" y="-42.4" font-family="Times-12" font-weight="bold" font-size="14.00">Legend</text>
<polygon fill="#ffffb3" stroke="transparent" points="24,-10 24,-30 44,-30 44,-10 24,-10"/>
<text text-anchor="start" x="47.63" y="-15.4" font-family="Times-12" font-size="14.00"> &#160;Declarations</text>
<polygon fill="#8dd3c7" stroke="transparent" points="137,-10 137,-30 157,-30 157,-10 137,-10"/>
<text text-anchor="start" x="160.73" y="-15.4" font-family="Times-12" font-size="14.00"> &#160;Module</text>
<polygon fill="#80b1d3" stroke="transparent" points="223,-10 223,-30 243,-30 243,-10 223,-10"/>
<text text-anchor="start" x="246.78" y="-15.4" font-family="Times-12" font-size="14.00"> &#160;Bootstrap</text>
<polygon fill="#fdb462" stroke="transparent" points="320,-10 320,-30 340,-30 340,-10 320,-10"/>
<text text-anchor="start" x="343.67" y="-15.4" font-family="Times-12" font-size="14.00"> &#160;Providers</text>
<polygon fill="#fb8072" stroke="transparent" points="416,-10 416,-30 436,-30 436,-10 416,-10"/>
<text text-anchor="start" x="439.73" y="-15.4" font-family="Times-12" font-size="14.00"> &#160;Exports</text>
<g id="clust1" class="cluster">
<title>cluster_PlaylistDetailPageModule</title>
<polygon fill="none" stroke="black" stroke-dasharray="1,5" points="8,-70 8,-195 508,-195 508,-70 8,-70"/>
</g>
<g id="clust2" class="cluster">
<title>cluster_PlaylistDetailPageModule_declarations</title>
<polygon fill="none" stroke="black" points="364,-78 364,-130 500,-130 500,-78 364,-78"/>
</g>
<g id="clust4" class="cluster">
<title>cluster_PlaylistDetailPageModule_imports</title>
<polygon fill="none" stroke="black" points="16,-78 16,-130 356,-130 356,-78 16,-78"/>
</g>
<!-- PlaylistDetailPage -->
<g id="node1" class="node">
<title>PlaylistDetailPage</title>
<polygon fill="#ffffb3" stroke="black" points="491.92,-122 372.08,-122 372.08,-86 491.92,-86 491.92,-122"/>
<text text-anchor="middle" x="432" y="-99.8" font-family="Times,serif" font-size="14.00">PlaylistDetailPage</text>
</g>
<!-- PlaylistDetailPageModule -->
<g id="node2" class="node">
<title>PlaylistDetailPageModule</title>
<polygon fill="#8dd3c7" stroke="black" points="325.47,-187 322.47,-191 301.47,-191 298.47,-187 162.53,-187 162.53,-151 325.47,-151 325.47,-187"/>
<text text-anchor="middle" x="244" y="-164.8" font-family="Times,serif" font-size="14.00">PlaylistDetailPageModule</text>
</g>
<!-- PlaylistDetailPage&#45;&gt;PlaylistDetailPageModule -->
<g id="edge1" class="edge">
<title>PlaylistDetailPage&#45;&gt;PlaylistDetailPageModule</title>
<path fill="none" stroke="black" d="M432,-122.11C432,-141.34 432,-169 432,-169 432,-169 335.64,-169 335.64,-169"/>
<polygon fill="black" stroke="black" points="335.64,-165.5 325.64,-169 335.64,-172.5 335.64,-165.5"/>
</g>
<!-- PlaylistDetailPageRoutingModule -->
<g id="node3" class="node">
<title>PlaylistDetailPageRoutingModule</title>
<polygon fill="#8dd3c7" stroke="black" points="348.09,-122 345.09,-126 324.09,-126 321.09,-122 139.91,-122 139.91,-86 348.09,-86 348.09,-122"/>
<text text-anchor="middle" x="244" y="-99.8" font-family="Times,serif" font-size="14.00">PlaylistDetailPageRoutingModule</text>
</g>
<!-- PlaylistDetailPageRoutingModule&#45;&gt;PlaylistDetailPageModule -->
<g id="edge2" class="edge">
<title>PlaylistDetailPageRoutingModule&#45;&gt;PlaylistDetailPageModule</title>
<path fill="none" stroke="black" d="M244,-122.11C244,-122.11 244,-140.99 244,-140.99"/>
<polygon fill="black" stroke="black" points="240.5,-140.99 244,-150.99 247.5,-140.99 240.5,-140.99"/>
</g>
<!-- SharedModule -->
<g id="node4" class="node">
<title>SharedModule</title>
<polygon fill="#8dd3c7" stroke="black" points="122.42,-122 119.42,-126 98.42,-126 95.42,-122 23.58,-122 23.58,-86 122.42,-86 122.42,-122"/>
<text text-anchor="middle" x="73" y="-99.8" font-family="Times,serif" font-size="14.00">SharedModule</text>
</g>
<!-- SharedModule&#45;&gt;PlaylistDetailPageModule -->
<g id="edge3" class="edge">
<title>SharedModule&#45;&gt;PlaylistDetailPageModule</title>
<path fill="none" stroke="black" d="M73,-122.11C73,-141.34 73,-169 73,-169 73,-169 152.51,-169 152.51,-169"/>
<polygon fill="black" stroke="black" points="152.51,-172.5 162.51,-169 152.51,-165.5 152.51,-172.5"/>
</g>
</g>
</svg>
