<?xml version="1.0" encoding="UTF-8" standalone="no"?>
<!DOCTYPE svg PUBLIC "-//W3C//DTD SVG 1.1//EN"
 "http://www.w3.org/Graphics/SVG/1.1/DTD/svg11.dtd">
<!-- Generated by graphviz version 2.47.0 (20210316.0004)
 -->
<!-- Title: dependencies Pages: 1 -->
<svg width="614pt" height="211pt"
 viewBox="0.00 0.00 614.00 211.00" xmlns="http://www.w3.org/2000/svg" xmlns:xlink="http://www.w3.org/1999/xlink">
<g id="graph0" class="graph" transform="scale(1 1) rotate(0) translate(4 207)">
<title>dependencies</title>
<polygon fill="white" stroke="transparent" points="-4,4 -4,-207 610,-207 610,4 -4,4"/>
<text text-anchor="start" x="282.01" y="-42.4" font-family="Times-12" font-weight="bold" font-size="14.00">Legend</text>
<polygon fill="#ffffb3" stroke="transparent" points="69,-10 69,-30 89,-30 89,-10 69,-10"/>
<text text-anchor="start" x="92.63" y="-15.4" font-family="Times-12" font-size="14.00"> &#160;Declarations</text>
<polygon fill="#8dd3c7" stroke="transparent" points="182,-10 182,-30 202,-30 202,-10 182,-10"/>
<text text-anchor="start" x="205.73" y="-15.4" font-family="Times-12" font-size="14.00"> &#160;Module</text>
<polygon fill="#80b1d3" stroke="transparent" points="268,-10 268,-30 288,-30 288,-10 268,-10"/>
<text text-anchor="start" x="291.78" y="-15.4" font-family="Times-12" font-size="14.00"> &#160;Bootstrap</text>
<polygon fill="#fdb462" stroke="transparent" points="365,-10 365,-30 385,-30 385,-10 365,-10"/>
<text text-anchor="start" x="388.67" y="-15.4" font-family="Times-12" font-size="14.00"> &#160;Providers</text>
<polygon fill="#fb8072" stroke="transparent" points="461,-10 461,-30 481,-30 481,-10 461,-10"/>
<text text-anchor="start" x="484.73" y="-15.4" font-family="Times-12" font-size="14.00"> &#160;Exports</text>
<g id="clust1" class="cluster">
<title>cluster_ArtistsPageModule</title>
<polygon fill="none" stroke="black" stroke-dasharray="1,5" points="8,-70 8,-195 598,-195 598,-70 8,-70"/>
</g>
<g id="clust5" class="cluster">
<title>cluster_ArtistsPageModule_imports</title>
<polygon fill="none" stroke="black" points="288,-78 288,-130 590,-130 590,-78 288,-78"/>
</g>
<g id="clust2" class="cluster">
<title>cluster_ArtistsPageModule_declarations</title>
<polygon fill="none" stroke="black" points="16,-78 16,-130 280,-130 280,-78 16,-78"/>
</g>
<!-- ArtistModalComponent -->
<g id="node1" class="node">
<title>ArtistModalComponent</title>
<polygon fill="#ffffb3" stroke="black" points="271.77,-122 122.23,-122 122.23,-86 271.77,-86 271.77,-122"/>
<text text-anchor="middle" x="197" y="-99.8" font-family="Times,serif" font-size="14.00">ArtistModalComponent</text>
</g>
<!-- ArtistsPageModule -->
<g id="node3" class="node">
<title>ArtistsPageModule</title>
<polygon fill="#8dd3c7" stroke="black" points="333.09,-187 330.09,-191 309.09,-191 306.09,-187 208.91,-187 208.91,-151 333.09,-151 333.09,-187"/>
<text text-anchor="middle" x="271" y="-164.8" font-family="Times,serif" font-size="14.00">ArtistsPageModule</text>
</g>
<!-- ArtistModalComponent&#45;&gt;ArtistsPageModule -->
<g id="edge1" class="edge">
<title>ArtistModalComponent&#45;&gt;ArtistsPageModule</title>
<path fill="none" stroke="black" d="M240.42,-122.11C240.42,-122.11 240.42,-140.99 240.42,-140.99"/>
<polygon fill="black" stroke="black" points="236.92,-140.99 240.42,-150.99 243.92,-140.99 236.92,-140.99"/>
</g>
<!-- ArtistsPage -->
<g id="node2" class="node">
<title>ArtistsPage</title>
<polygon fill="#ffffb3" stroke="black" points="104.04,-122 23.96,-122 23.96,-86 104.04,-86 104.04,-122"/>
<text text-anchor="middle" x="64" y="-99.8" font-family="Times,serif" font-size="14.00">ArtistsPage</text>
</g>
<!-- ArtistsPage&#45;&gt;ArtistsPageModule -->
<g id="edge2" class="edge">
<title>ArtistsPage&#45;&gt;ArtistsPageModule</title>
<path fill="none" stroke="black" d="M64,-122.11C64,-141.34 64,-169 64,-169 64,-169 198.89,-169 198.89,-169"/>
<polygon fill="black" stroke="black" points="198.89,-172.5 208.89,-169 198.89,-165.5 198.89,-172.5"/>
</g>
<!-- ArtistsPageRoutingModule -->
<g id="node4" class="node">
<title>ArtistsPageRoutingModule</title>
<polygon fill="#8dd3c7" stroke="black" points="581.71,-122 578.71,-126 557.71,-126 554.71,-122 412.29,-122 412.29,-86 581.71,-86 581.71,-122"/>
<text text-anchor="middle" x="497" y="-99.8" font-family="Times,serif" font-size="14.00">ArtistsPageRoutingModule</text>
</g>
<!-- ArtistsPageRoutingModule&#45;&gt;ArtistsPageModule -->
<g id="edge3" class="edge">
<title>ArtistsPageRoutingModule&#45;&gt;ArtistsPageModule</title>
<path fill="none" stroke="black" d="M497,-122.11C497,-141.34 497,-169 497,-169 497,-169 343.05,-169 343.05,-169"/>
<polygon fill="black" stroke="black" points="343.05,-165.5 333.05,-169 343.05,-172.5 343.05,-165.5"/>
</g>
<!-- SharedModule -->
<g id="node5" class="node">
<title>SharedModule</title>
<polygon fill="#8dd3c7" stroke="black" points="394.42,-122 391.42,-126 370.42,-126 367.42,-122 295.58,-122 295.58,-86 394.42,-86 394.42,-122"/>
<text text-anchor="middle" x="345" y="-99.8" font-family="Times,serif" font-size="14.00">SharedModule</text>
</g>
<!-- SharedModule&#45;&gt;ArtistsPageModule -->
<g id="edge4" class="edge">
<title>SharedModule&#45;&gt;ArtistsPageModule</title>
<path fill="none" stroke="black" d="M314.42,-122.11C314.42,-122.11 314.42,-140.99 314.42,-140.99"/>
<polygon fill="black" stroke="black" points="310.92,-140.99 314.42,-150.99 317.92,-140.99 310.92,-140.99"/>
</g>
</g>
</svg>
